<svg width="525" height="612" viewBox="0 0 525 612" fill="none" xmlns="http://www.w3.org/2000/svg">
<g clip-path="url(#clip0)">
<rect width="529" height="613" transform="translate(0 -1)" fill="white"/>
<path d="M19.4462 434.702C10.5656 429.62 10.7665 416.744 19.8013 411.941L142.501 346.708C149.905 342.772 159.044 346.772 161.176 354.881L188.405 458.435C189.413 462.267 188.618 466.349 186.246 469.523L161.387 502.785C157.455 508.046 150.216 509.548 144.516 506.286L19.4462 434.702Z" fill="#F7F7FF"/>
<path d="M360 534.5C363.413 529.307 365.823 526.028 371.5 523.5C379.931 519.746 386.939 521.507 395 526C403.803 530.907 407.999 537.122 410 547C412.355 558.622 409.877 568.138 401 576C393.691 582.473 386.606 584.741 377 583C367.776 581.328 362.309 577.047 357.5 569C350.57 557.404 352.581 545.788 360 534.5Z" fill="url(#paint0_linear)"/>
<path d="M437.5 456.5C489.1 428.5 547 420.5 569.5 420L599.5 141L543.5 -98.5L468.5 -112L308 -101C241 -80 121 -37.2 103 -24C80.4999 -7.5 36.8633 4.28 23 51C1.23522 124.348 78.4999 193 99.9999 250C121.5 307 104 378 103 437.5C102 497 169 553 232 546C295 539 373 491.5 437.5 456.5Z" fill="url(#paint1_linear)"/>
<mask id="mask0" mask-type="alpha" maskUnits="userSpaceOnUse" x="18" y="-114" width="581" height="659">
<path d="M436.5 454.5C488.1 426.5 546 418.5 568.5 418L598.5 139L542.5 -100.5L467.5 -114L307 -103C240 -82 120 -38.2 102 -25C79.4999 -8.5 32.4999 9 19.9999 65C7.49987 121 77.4999 191 98.9999 248C120.5 305 103 376 102 435.5C101 495 168 551 231 544C294 537 372 489.5 436.5 454.5Z" fill="white"/>
</mask>
<g mask="url(#mask0)">
<path opacity="0.1" d="M3.57009 277C-54.8299 190.6 -13.4299 7.66666 14.5701 -73L324.57 -87L668.57 -80C652.57 29.3333 610.57 248 570.57 248C520.57 248 451.43 216.463 430.57 154C407.798 85.8095 490.57 5 503.57 -15C515.181 -32.8629 566.944 -54.7144 583.335 -54.193L516.57 -73C478.57 -59.3333 407.952 -38.1019 366.57 16C319.244 77.8739 307.57 125 324.57 211C341.669 297.502 333.57 413 252.57 425C171.57 437 76.5701 385 3.57009 277Z" fill="url(#paint2_linear)"/>
</g>
<path d="M496.5 477C526.5 473.5 549 502.5 551 500L562 518C565.333 524.667 571.7 541.8 570.5 557C569 576 551 590 533.5 596C516 602 492.5 600.5 466 586C439.5 571.5 434 545.5 441 518C448 490.5 466.5 480.5 496.5 477Z" fill="url(#paint3_linear)"/>
<path d="M219.5 448.5C219.5 443.7 221.833 435.833 223 432.5L217 425.5C214.333 429.833 208.2 438.8 205 440C201 441.5 196.5 437 190.5 435C184.5 433 180 435 176.5 438.5C173 442 177 447 188.5 448.5C200 450 207.5 455.5 211 456.5C214.5 457.5 219.5 454.5 219.5 448.5Z" fill="#FCDDDF"/>
<path d="M241 430C237 428 230.667 427.833 228 428V425.5L226 435C229.833 437.667 239.1 443.9 245.5 447.5C253.5 452 262.5 456.5 267 453C270.6 450.2 271.833 436.5 272 430L258.5 428C258.167 431.5 256.9 438.5 254.5 438.5C251.5 438.5 246 432.5 241 430Z" fill="#FCDDDF"/>
<rect x="63" y="336" width="10" height="87" rx="5" fill="#5723E4"/>
<rect x="63" y="336" width="10" height="87" rx="5" fill="url(#paint4_linear)"/>
<rect x="187" y="377" width="10" height="114" rx="5" fill="#5723E4"/>
<rect x="187" y="377" width="10" height="114" rx="5" fill="url(#paint5_linear)"/>
<path d="M343 306.037C343 302.325 345.057 298.917 348.343 297.188L392.671 273.857C396.001 272.105 400 274.519 400 278.282V366.947C400 370.401 398.218 373.61 395.287 375.436L350.643 403.24C347.313 405.314 343 402.919 343 398.996V306.037Z" fill="#5B1DE9"/>
<path d="M338 377.823C338 376.071 338.917 374.447 340.417 373.542L392.967 341.83C394.3 341.026 396 341.986 396 343.543V354.577C396 357.014 394.733 359.276 392.654 360.548L341.044 392.137C339.711 392.952 338 391.993 338 390.431V377.823Z" fill="#3214A8"/>
<path d="M340 378.797C340 377.059 340.903 375.446 342.384 374.536L393.953 342.871C395.286 342.052 397 343.011 397 344.575V355.613C397 358.031 395.753 360.277 393.701 361.555L343.057 393.096C341.725 393.926 340 392.968 340 391.398V378.797Z" fill="#6A35F0"/>
<path d="M338 348.823C338 347.071 338.917 345.447 340.417 344.542L392.967 312.83C394.3 312.026 396 312.986 396 314.543V325.577C396 328.014 394.733 330.276 392.654 331.548L341.044 363.137C339.711 363.952 338 362.993 338 361.431V348.823Z" fill="#3214A8"/>
<path d="M340 349.797C340 348.059 340.903 346.446 342.384 345.536L393.953 313.871C395.286 313.052 397 314.011 397 315.575V326.613C397 329.031 395.753 331.277 393.701 332.555L343.057 364.096C341.725 364.926 340 363.968 340 362.398V349.797Z" fill="#6A35F0"/>
<path d="M346 310.311C346 308.565 346.91 306.946 348.402 306.039L391.461 279.849C392.793 279.038 394.5 279.997 394.5 281.557V292.599C394.5 295.024 393.245 297.276 391.182 298.552L349.052 324.612C347.72 325.436 346 324.478 346 322.911V310.311Z" fill="#3214A8"/>
<path d="M348 310.806C348 309.063 348.907 307.446 350.395 306.538L392.458 280.857C393.791 280.044 395.5 281.003 395.5 282.564V293.607C395.5 296.028 394.249 298.277 392.193 299.554L351.055 325.103C349.723 325.93 348 324.972 348 323.404V310.806Z" fill="#6A35F0"/>
<path d="M368 305C368.5 306.276 369.5 308 369.5 308L382 300C382 300 381 299 380 298" stroke="white" stroke-width="3" stroke-linecap="round" stroke-linejoin="round"/>
<path d="M369 340C369.5 341.276 370 342 370 342L382.5 334.5C382.5 334.5 382 334 381 333" stroke="white" stroke-width="3" stroke-linecap="round" stroke-linejoin="round"/>
<path d="M370 366.3C370.464 367.448 371.393 369 371.393 369L383 361.8C383 361.8 382.071 360.9 381.143 360" stroke="white" stroke-width="3" stroke-linecap="round" stroke-linejoin="round"/>
<path d="M314.5 420.5C329.3 414.9 317.667 391.5 310 380.5V349.5L281.5 309.5L221 354.5C215.667 376.5 205 421.8 205 427C205 433.5 205 433.5 217 436C229 438.5 230 439.5 232 430.5C233.6 423.3 241.333 399.5 245 388.5L258.5 404C258.5 404 248 425 250 430.5C252 436 270.787 442.5 273 439.5C275.213 436.5 278.5 420.5 278.5 420.5C284.333 422.833 299.7 426.1 314.5 420.5Z" fill="#2F10AC"/>
<path d="M271.064 196.276C271.064 196.276 46.7141 324.49 44.1876 325.999C41.6612 327.507 38.0005 321.497 38.0001 325.999C37.9997 330.5 36.9999 337 40.0001 340C72.8441 358.436 145.448 400.011 156.363 406.446C167.277 412.882 178.09 406.446 178.09 406.446C249.337 365.72 394.962 282.557 407.493 275.719C420.024 268.881 414.228 257.4 409.006 255.054C370.941 232.931 292.185 193.461 287.739 192.254C283.292 191.047 274.77 194.433 271.064 196.276Z" fill="#E8BAFF"/>
<path d="M271 188.5C271 188.5 49.0002 316 46.5002 317.5C44.0002 319 39.7147 320.5 38.0002 324.5C36.2858 328.5 42.3335 331.979 46.5002 334.5C79.0002 352.833 146.7 391.1 157.5 397.5C168.3 403.9 179 397.5 179 397.5C179 397.5 393.6 274.3 406 267.5C418.4 260.7 411.167 254.333 406 252C368.333 230 291.9 185.7 287.5 184.5C283.1 183.3 274.667 186.667 271 188.5Z" fill="#F6E8FF"/>
<g opacity="0.5">
<path d="M344.5 237.5L387.5 263.5L363 277.5L319.5 250L344.5 237.5Z" fill="white"/>
<path d="M314.301 243.816L367.864 269.816L344.199 285.184L290.863 263.178L314.301 243.816Z" fill="white"/>
</g>
<path d="M138.18 332.7C136.801 331.938 136.803 329.954 138.185 329.196L260.645 261.988C264.436 259.907 269.135 260.499 272.291 263.455L296.582 286.204C297.547 287.107 297.386 288.681 296.259 289.37L188.96 354.968C185.894 356.842 182.057 356.927 178.911 355.19L138.18 332.7Z" fill="#5C1DEA"/>
<path d="M165.692 327.13C163.643 325.982 163.65 323.03 165.704 321.89L233.734 284.144C236.705 282.496 240.31 282.469 243.305 284.072L263.252 294.749C265.324 295.858 265.374 298.812 263.339 299.99L196.431 338.741C193.374 340.512 189.611 340.538 186.529 338.811L165.692 327.13Z" fill="white"/>
<path d="M177.016 323.386C177.328 323.607 177.729 323.616 178.049 323.41L182.274 320.686C182.591 320.482 182.592 319.984 182.275 319.779L181.034 318.972C180.727 318.773 180.344 318.771 180.036 318.968L175.847 321.645C175.536 321.844 175.525 322.328 175.828 322.542L177.016 323.386Z" fill="#5E35B5"/>
<path d="M183.851 319.251C184.159 319.469 184.554 319.481 184.873 319.282L186.311 318.383C186.634 318.182 186.637 317.679 186.318 317.472L185.077 316.666C184.776 316.47 184.401 316.465 184.096 316.652L182.696 317.509C182.378 317.704 182.364 318.195 182.669 318.412L183.851 319.251Z" fill="#5E35B5"/>
<path d="M187.753 317.134C188.061 317.353 188.456 317.365 188.775 317.166L190.213 316.267C190.535 316.066 190.539 315.563 190.22 315.356L188.979 314.549C188.678 314.354 188.303 314.349 187.997 314.536L186.598 315.393C186.28 315.588 186.265 316.078 186.571 316.295L187.753 317.134Z" fill="#5E35B5"/>
<path d="M191.655 315.018C191.963 315.237 192.358 315.249 192.677 315.05L194.115 314.151C194.437 313.95 194.441 313.447 194.122 313.24L192.881 312.433C192.58 312.238 192.205 312.232 191.899 312.42L190.5 313.277C190.182 313.472 190.167 313.962 190.473 314.179L191.655 315.018Z" fill="#5E35B5"/>
<path d="M195.557 312.902C195.864 313.121 196.26 313.133 196.578 312.934L198.017 312.035C198.339 311.833 198.343 311.331 198.024 311.123L196.783 310.317C196.482 310.122 196.107 310.116 195.801 310.304L194.402 311.161C194.084 311.355 194.069 311.846 194.374 312.063L195.557 312.902Z" fill="#5E35B5"/>
<path d="M199.458 310.786C199.766 311.004 200.161 311.017 200.48 310.817L201.918 309.919C202.241 309.717 202.245 309.215 201.925 309.007L200.684 308.201C200.383 308.005 200.008 308 199.703 308.187L198.303 309.044C197.985 309.239 197.971 309.73 198.276 309.947L199.458 310.786Z" fill="#5E35B5"/>
<path d="M203.36 308.67C203.668 308.888 204.063 308.9 204.382 308.701L205.82 307.803C206.142 307.601 206.146 307.098 205.827 306.891L204.586 306.085C204.285 305.889 203.91 305.884 203.605 306.071L202.205 306.928C201.887 307.123 201.872 307.614 202.178 307.831L203.36 308.67Z" fill="#5E35B5"/>
<path d="M207.262 306.554C207.57 306.772 207.965 306.784 208.284 306.585L209.722 305.686C210.044 305.485 210.048 304.982 209.729 304.775L208.488 303.969C208.187 303.773 207.812 303.768 207.506 303.955L206.107 304.812C205.789 305.007 205.774 305.498 206.08 305.715L207.262 306.554Z" fill="#5E35B5"/>
<path d="M211.164 304.437C211.471 304.656 211.867 304.668 212.185 304.469L213.624 303.57C213.946 303.369 213.95 302.866 213.631 302.659L212.39 301.853C212.089 301.657 211.714 301.652 211.408 301.839L210.009 302.696C209.691 302.891 209.676 303.382 209.982 303.599L211.164 304.437Z" fill="#5E35B5"/>
<path d="M215.065 302.321C215.373 302.54 215.768 302.552 216.087 302.353L217.525 301.454C217.848 301.253 217.852 300.75 217.532 300.543L216.292 299.736C215.99 299.541 215.615 299.536 215.31 299.723L213.911 300.58C213.592 300.775 213.578 301.265 213.883 301.482L215.065 302.321Z" fill="#5E35B5"/>
<path d="M218.967 300.205C219.275 300.424 219.67 300.436 219.989 300.237L221.427 299.338C221.749 299.137 221.753 298.634 221.434 298.427L220.193 297.62C219.892 297.425 219.517 297.419 219.212 297.607L217.812 298.464C217.494 298.659 217.479 299.149 217.785 299.366L218.967 300.205Z" fill="#5E35B5"/>
<path d="M222.869 298.089C223.177 298.308 223.572 298.32 223.891 298.12L225.329 297.222C225.651 297.02 225.655 296.518 225.336 296.31L224.095 295.504C223.794 295.309 223.419 295.303 223.113 295.491L221.714 296.348C221.396 296.542 221.381 297.033 221.687 297.25L222.869 298.089Z" fill="#5E35B5"/>
<path d="M226.771 295.973C227.079 296.191 227.474 296.204 227.793 296.004L229.231 295.106C229.553 294.904 229.557 294.402 229.238 294.194L227.997 293.388C227.696 293.192 227.321 293.187 227.015 293.374L225.616 294.231C225.298 294.426 225.283 294.917 225.589 295.134L226.771 295.973Z" fill="#5E35B5"/>
<path d="M230.672 293.857C230.98 294.075 231.375 294.087 231.694 293.888L233.132 292.99C233.455 292.788 233.459 292.285 233.139 292.078L231.899 291.272C231.597 291.076 231.222 291.071 230.917 291.258L229.518 292.115C229.199 292.31 229.185 292.801 229.49 293.018L230.672 293.857Z" fill="#5E35B5"/>
<path d="M234.574 291.741C234.882 291.959 235.277 291.971 235.596 291.772L237.034 290.873C237.356 290.672 237.36 290.169 237.041 289.962L235.8 289.156C235.499 288.96 235.124 288.955 234.819 289.142L233.419 289.999C233.101 290.194 233.086 290.685 233.392 290.902L234.574 291.741Z" fill="#5E35B5"/>
<path d="M184.828 322.422C185.136 322.641 185.531 322.653 185.85 322.454L187.288 321.555C187.61 321.353 187.614 320.851 187.295 320.643L186.054 319.837C185.753 319.642 185.378 319.636 185.072 319.824L183.673 320.681C183.355 320.875 183.34 321.366 183.646 321.583L184.828 322.422Z" fill="#5E35B5"/>
<path d="M180.926 324.538C181.234 324.757 181.629 324.769 181.948 324.57L183.386 323.671C183.709 323.47 183.713 322.967 183.393 322.76L182.152 321.953C181.851 321.758 181.476 321.753 181.171 321.94L179.771 322.797C179.453 322.992 179.439 323.482 179.744 323.699L180.926 324.538Z" fill="#5E35B5"/>
<path d="M188.73 320.306C189.038 320.524 189.433 320.537 189.752 320.337L191.19 319.439C191.512 319.237 191.516 318.735 191.197 318.527L189.956 317.721C189.655 317.525 189.28 317.52 188.974 317.707L187.575 318.565C187.257 318.759 187.242 319.25 187.548 319.467L188.73 320.306Z" fill="#5E35B5"/>
<path d="M192.632 318.19C192.939 318.408 193.335 318.42 193.653 318.221L195.092 317.323C195.414 317.121 195.418 316.618 195.099 316.411L193.858 315.605C193.557 315.409 193.182 315.404 192.876 315.591L191.477 316.448C191.159 316.643 191.144 317.134 191.45 317.351L192.632 318.19Z" fill="#5E35B5"/>
<path d="M196.533 316.074C196.841 316.292 197.236 316.304 197.555 316.105L198.993 315.206C199.316 315.005 199.32 314.502 199 314.295L197.759 313.489C197.458 313.293 197.083 313.288 196.778 313.475L195.378 314.332C195.06 314.527 195.046 315.018 195.351 315.235L196.533 316.074Z" fill="#5E35B5"/>
<path d="M200.435 313.958C200.743 314.176 201.138 314.188 201.457 313.989L202.895 313.09C203.217 312.889 203.221 312.386 202.902 312.179L201.661 311.373C201.36 311.177 200.985 311.172 200.68 311.359L199.28 312.216C198.962 312.411 198.947 312.902 199.253 313.119L200.435 313.958Z" fill="#5E35B5"/>
<path d="M204.337 311.841C204.645 312.06 205.04 312.072 205.359 311.873L206.797 310.974C207.119 310.773 207.123 310.27 206.804 310.063L205.563 309.256C205.262 309.061 204.887 309.056 204.581 309.243L203.182 310.1C202.864 310.295 202.849 310.785 203.155 311.002L204.337 311.841Z" fill="#5E35B5"/>
<path d="M208.239 309.725C208.546 309.944 208.942 309.956 209.26 309.757L210.699 308.858C211.021 308.657 211.025 308.154 210.706 307.947L209.465 307.14C209.164 306.945 208.789 306.939 208.483 307.127L207.084 307.984C206.766 308.179 206.751 308.669 207.057 308.886L208.239 309.725Z" fill="#5E35B5"/>
<path d="M212.14 307.609C212.448 307.828 212.843 307.84 213.162 307.641L214.6 306.742C214.923 306.54 214.927 306.038 214.607 305.83L213.367 305.024C213.065 304.829 212.69 304.823 212.385 305.011L210.986 305.868C210.667 306.062 210.653 306.553 210.958 306.77L212.14 307.609Z" fill="#5E35B5"/>
<path d="M216.042 305.493C216.35 305.711 216.745 305.724 217.064 305.524L218.502 304.626C218.824 304.424 218.828 303.922 218.509 303.714L217.268 302.908C216.967 302.712 216.592 302.707 216.287 302.894L214.887 303.752C214.569 303.946 214.554 304.437 214.86 304.654L216.042 305.493Z" fill="#5E35B5"/>
<path d="M219.944 303.377C220.252 303.595 220.647 303.607 220.966 303.408L222.404 302.51C222.726 302.308 222.73 301.805 222.411 301.598L221.17 300.792C220.869 300.596 220.494 300.591 220.188 300.778L218.789 301.635C218.471 301.83 218.456 302.321 218.762 302.538L219.944 303.377Z" fill="#5E35B5"/>
<path d="M223.846 301.261C224.154 301.479 224.549 301.491 224.868 301.292L226.306 300.393C226.628 300.192 226.632 299.689 226.313 299.482L225.072 298.676C224.771 298.48 224.396 298.475 224.09 298.662L222.691 299.519C222.373 299.714 222.358 300.205 222.664 300.422L223.846 301.261Z" fill="#5E35B5"/>
<path d="M227.747 299.145C228.055 299.363 228.45 299.375 228.769 299.176L230.207 298.277C230.53 298.076 230.534 297.573 230.214 297.366L228.974 296.56C228.672 296.364 228.298 296.359 227.992 296.546L226.593 297.403C226.274 297.598 226.26 298.089 226.565 298.306L227.747 299.145Z" fill="#5E35B5"/>
<path d="M231.649 297.028C231.957 297.247 232.352 297.259 232.671 297.06L234.109 296.161C234.431 295.96 234.435 295.457 234.116 295.25L232.875 294.443C232.574 294.248 232.199 294.243 231.894 294.43L230.494 295.287C230.176 295.482 230.161 295.972 230.467 296.189L231.649 297.028Z" fill="#5E35B5"/>
<path d="M235.551 294.912C235.859 295.131 236.254 295.143 236.573 294.944L238.011 294.045C238.333 293.844 238.337 293.341 238.018 293.134L236.777 292.327C236.476 292.132 236.101 292.126 235.795 292.314L234.396 293.171C234.078 293.366 234.063 293.856 234.369 294.073L235.551 294.912Z" fill="#5E35B5"/>
<path d="M189.707 323.478C190.015 323.696 190.41 323.708 190.729 323.509L192.167 322.61C192.489 322.409 192.493 321.906 192.174 321.699L190.933 320.893C190.632 320.697 190.257 320.692 189.951 320.879L188.552 321.736C188.234 321.931 188.219 322.422 188.525 322.639L189.707 323.478Z" fill="#5E35B5"/>
<path d="M183.96 326.687C184.258 326.881 184.629 326.888 184.933 326.706L188.243 324.722C188.572 324.524 188.58 324.015 188.257 323.806L187.026 323.006C186.728 322.812 186.356 322.805 186.052 322.987L182.743 324.971C182.414 325.169 182.406 325.678 182.728 325.887L183.96 326.687Z" fill="#5E35B5"/>
<path d="M193.608 321.361C193.916 321.58 194.311 321.592 194.63 321.393L196.068 320.494C196.391 320.293 196.395 319.79 196.075 319.583L194.835 318.777C194.533 318.581 194.158 318.576 193.853 318.763L192.454 319.62C192.135 319.815 192.121 320.306 192.426 320.522L193.608 321.361Z" fill="#5E35B5"/>
<path d="M197.51 319.245C197.818 319.464 198.213 319.476 198.532 319.277L199.97 318.378C200.292 318.177 200.296 317.674 199.977 317.467L198.736 316.66C198.435 316.465 198.06 316.46 197.755 316.647L196.355 317.504C196.037 317.699 196.022 318.189 196.328 318.406L197.51 319.245Z" fill="#5E35B5"/>
<path d="M201.412 317.129C201.72 317.348 202.115 317.36 202.434 317.161L203.872 316.262C204.194 316.06 204.198 315.558 203.879 315.35L202.638 314.544C202.337 314.349 201.962 314.343 201.656 314.531L200.257 315.388C199.939 315.583 199.924 316.073 200.23 316.29L201.412 317.129Z" fill="#5E35B5"/>
<path d="M205.314 315.013C205.622 315.231 206.017 315.244 206.336 315.044L207.774 314.146C208.096 313.944 208.1 313.442 207.781 313.234L206.54 312.428C206.239 312.232 205.864 312.227 205.558 312.414L204.159 313.272C203.841 313.466 203.826 313.957 204.132 314.174L205.314 315.013Z" fill="#5E35B5"/>
<path d="M209.215 312.897C209.523 313.115 209.918 313.128 210.237 312.928L211.675 312.03C211.998 311.828 212.002 311.325 211.683 311.118L210.442 310.312C210.14 310.116 209.766 310.111 209.46 310.298L208.061 311.155C207.742 311.35 207.728 311.841 208.033 312.058L209.215 312.897Z" fill="#5E35B5"/>
<path d="M213.117 310.781C213.425 310.999 213.82 311.011 214.139 310.812L215.577 309.913C215.899 309.712 215.903 309.209 215.584 309.002L214.343 308.196C214.042 308 213.667 307.995 213.362 308.182L211.962 309.039C211.644 309.234 211.629 309.725 211.935 309.942L213.117 310.781Z" fill="#5E35B5"/>
<path d="M217.019 308.665C217.327 308.883 217.722 308.895 218.041 308.696L219.479 307.797C219.801 307.596 219.805 307.093 219.486 306.886L218.245 306.08C217.944 305.884 217.569 305.879 217.263 306.066L215.864 306.923C215.546 307.118 215.531 307.609 215.837 307.826L217.019 308.665Z" fill="#5E35B5"/>
<path d="M220.921 306.548C221.229 306.767 221.624 306.779 221.943 306.58L223.381 305.681C223.703 305.48 223.707 304.977 223.388 304.77L222.147 303.964C221.846 303.768 221.471 303.763 221.165 303.95L219.766 304.807C219.448 305.002 219.433 305.493 219.739 305.709L220.921 306.548Z" fill="#5E35B5"/>
<path d="M224.822 304.432C225.13 304.651 225.526 304.663 225.844 304.464L227.282 303.565C227.605 303.364 227.609 302.861 227.29 302.654L226.049 301.847C225.747 301.652 225.373 301.647 225.067 301.834L223.668 302.691C223.35 302.886 223.335 303.376 223.64 303.593L224.822 304.432Z" fill="#5E35B5"/>
<path d="M228.724 302.316C229.032 302.535 229.427 302.547 229.746 302.348L231.184 301.449C231.507 301.247 231.51 300.745 231.191 300.537L229.95 299.731C229.649 299.536 229.274 299.53 228.969 299.718L227.569 300.575C227.251 300.769 227.236 301.26 227.542 301.477L228.724 302.316Z" fill="#5E35B5"/>
<path d="M232.626 300.2C232.934 300.418 233.329 300.431 233.648 300.231L235.086 299.333C235.408 299.131 235.412 298.629 235.093 298.421L233.852 297.615C233.551 297.419 233.176 297.414 232.87 297.601L231.471 298.459C231.153 298.653 231.138 299.144 231.444 299.361L232.626 300.2Z" fill="#5E35B5"/>
<path d="M236.528 298.084C236.836 298.302 237.231 298.314 237.55 298.115L238.988 297.217C239.31 297.015 239.314 296.512 238.995 296.305L237.754 295.499C237.453 295.303 237.078 295.298 236.772 295.485L235.373 296.342C235.055 296.537 235.04 297.028 235.346 297.245L236.528 298.084Z" fill="#5E35B5"/>
<path d="M240.429 295.968C240.737 296.186 241.133 296.198 241.451 295.999L242.889 295.1C243.212 294.899 243.216 294.396 242.897 294.189L241.656 293.383C241.355 293.187 240.98 293.182 240.674 293.369L239.275 294.226C238.957 294.421 238.942 294.912 239.247 295.129L240.429 295.968Z" fill="#5E35B5"/>
<path d="M190.683 326.649C190.991 326.868 191.386 326.88 191.705 326.681L193.143 325.782C193.466 325.58 193.47 325.078 193.15 324.87L191.91 324.064C191.608 323.869 191.233 323.863 190.928 324.051L189.529 324.908C189.21 325.103 189.196 325.593 189.501 325.81L190.683 326.649Z" fill="#5E35B5"/>
<path d="M186.782 328.765C187.09 328.984 187.485 328.996 187.804 328.797L189.242 327.898C189.564 327.697 189.568 327.194 189.249 326.987L188.008 326.18C187.707 325.985 187.332 325.98 187.026 326.167L185.627 327.024C185.309 327.219 185.294 327.709 185.6 327.926L186.782 328.765Z" fill="#5E35B5"/>
<path d="M194.585 324.533C194.893 324.752 195.288 324.764 195.607 324.564L197.045 323.666C197.367 323.464 197.371 322.962 197.052 322.754L195.811 321.948C195.51 321.752 195.135 321.747 194.83 321.934L193.43 322.792C193.112 322.986 193.097 323.477 193.403 323.694L194.585 324.533Z" fill="#5E35B5"/>
<path d="M198.487 322.417C198.795 322.635 199.19 322.648 199.509 322.448L200.947 321.55C201.269 321.348 201.273 320.846 200.954 320.638L199.713 319.832C199.412 319.636 199.037 319.631 198.731 319.818L197.332 320.675C197.014 320.87 196.999 321.361 197.305 321.578L198.487 322.417Z" fill="#5E35B5"/>
<path d="M202.389 320.301C202.697 320.519 203.092 320.531 203.411 320.332L204.849 319.433C205.171 319.232 205.175 318.729 204.856 318.522L203.615 317.716C203.314 317.52 202.939 317.515 202.633 317.702L201.234 318.559C200.916 318.754 200.901 319.245 201.207 319.462L202.389 320.301Z" fill="#5E35B5"/>
<path d="M206.29 318.185C206.598 318.403 206.993 318.415 207.312 318.216L208.75 317.317C209.073 317.116 209.077 316.613 208.757 316.406L207.517 315.6C207.215 315.404 206.84 315.399 206.535 315.586L205.136 316.443C204.817 316.638 204.803 317.129 205.108 317.346L206.29 318.185Z" fill="#5E35B5"/>
<path d="M210.192 316.068C210.5 316.287 210.895 316.299 211.214 316.1L212.652 315.201C212.974 315 212.978 314.497 212.659 314.29L211.418 313.484C211.117 313.288 210.742 313.283 210.437 313.47L209.037 314.327C208.719 314.522 208.704 315.013 209.01 315.229L210.192 316.068Z" fill="#5E35B5"/>
<path d="M214.094 313.952C214.402 314.171 214.797 314.183 215.116 313.984L216.554 313.085C216.876 312.884 216.88 312.381 216.561 312.174L215.32 311.367C215.019 311.172 214.644 311.167 214.338 311.354L212.939 312.211C212.621 312.406 212.606 312.896 212.912 313.113L214.094 313.952Z" fill="#5E35B5"/>
<path d="M217.996 311.836C218.304 312.055 218.699 312.067 219.018 311.868L220.456 310.969C220.778 310.767 220.782 310.265 220.463 310.057L219.222 309.251C218.921 309.056 218.546 309.05 218.24 309.238L216.841 310.095C216.523 310.29 216.508 310.78 216.814 310.997L217.996 311.836Z" fill="#5E35B5"/>
<path d="M221.897 309.72C222.205 309.939 222.6 309.951 222.919 309.751L224.357 308.853C224.68 308.651 224.684 308.149 224.365 307.941L223.124 307.135C222.822 306.939 222.448 306.934 222.142 307.121L220.743 307.979C220.424 308.173 220.41 308.664 220.715 308.881L221.897 309.72Z" fill="#5E35B5"/>
<path d="M225.799 307.604C226.107 307.822 226.502 307.835 226.821 307.635L228.259 306.737C228.581 306.535 228.585 306.033 228.266 305.825L227.025 305.019C226.724 304.823 226.349 304.818 226.044 305.005L224.644 305.862C224.326 306.057 224.311 306.548 224.617 306.765L225.799 307.604Z" fill="#5E35B5"/>
<path d="M229.701 305.488C230.009 305.706 230.404 305.718 230.723 305.519L232.161 304.62C232.483 304.419 232.487 303.916 232.168 303.709L230.927 302.903C230.626 302.707 230.251 302.702 229.945 302.889L228.546 303.746C228.228 303.941 228.213 304.432 228.519 304.649L229.701 305.488Z" fill="#5E35B5"/>
<path d="M233.603 303.372C233.911 303.59 234.306 303.602 234.625 303.403L236.063 302.504C236.385 302.303 236.389 301.8 236.07 301.593L234.829 300.787C234.528 300.591 234.153 300.586 233.847 300.773L232.448 301.63C232.13 301.825 232.115 302.316 232.421 302.533L233.603 303.372Z" fill="#5E35B5"/>
<path d="M237.504 301.255C237.812 301.474 238.208 301.486 238.526 301.287L239.964 300.388C240.287 300.187 240.291 299.684 239.972 299.477L238.731 298.671C238.429 298.475 238.055 298.47 237.749 298.657L236.35 299.514C236.032 299.709 236.017 300.2 236.322 300.416L237.504 301.255Z" fill="#5E35B5"/>
<path d="M241.406 299.139C241.714 299.358 242.109 299.37 242.428 299.171L243.866 298.272C244.189 298.071 244.192 297.568 243.873 297.361L242.632 296.554C242.331 296.359 241.956 296.354 241.651 296.541L240.251 297.398C239.933 297.593 239.918 298.083 240.224 298.3L241.406 299.139Z" fill="#5E35B5"/>
<path d="M195.562 327.705C195.87 327.923 196.265 327.935 196.584 327.736L198.022 326.837C198.344 326.636 198.348 326.133 198.029 325.926L196.788 325.12C196.487 324.924 196.112 324.919 195.806 325.106L194.407 325.963C194.089 326.158 194.074 326.649 194.38 326.866L195.562 327.705Z" fill="#5E35B5"/>
<path d="M191.66 329.821C191.968 330.039 192.363 330.051 192.682 329.852L194.12 328.953C194.442 328.752 194.446 328.249 194.127 328.042L192.886 327.236C192.585 327.04 192.21 327.035 191.905 327.222L190.505 328.079C190.187 328.274 190.172 328.765 190.478 328.982L191.66 329.821Z" fill="#5E35B5"/>
<path d="M199.464 325.588C199.772 325.807 200.167 325.819 200.486 325.62L201.924 324.721C202.246 324.52 202.25 324.017 201.931 323.81L200.69 323.004C200.389 322.808 200.014 322.803 199.708 322.99L198.309 323.847C197.991 324.042 197.976 324.533 198.282 324.75L199.464 325.588Z" fill="#5E35B5"/>
<path d="M203.365 323.472C203.673 323.691 204.068 323.703 204.387 323.504L205.825 322.605C206.148 322.404 206.152 321.901 205.832 321.694L204.592 320.887C204.29 320.692 203.916 320.687 203.61 320.874L202.211 321.731C201.892 321.926 201.878 322.416 202.183 322.633L203.365 323.472Z" fill="#5E35B5"/>
<path d="M207.267 321.356C207.575 321.575 207.97 321.587 208.289 321.388L209.727 320.489C210.049 320.287 210.053 319.785 209.734 319.577L208.493 318.771C208.192 318.576 207.817 318.57 207.512 318.758L206.112 319.615C205.794 319.81 205.779 320.3 206.085 320.517L207.267 321.356Z" fill="#5E35B5"/>
<path d="M211.169 319.24C211.477 319.459 211.872 319.471 212.191 319.271L213.629 318.373C213.951 318.171 213.955 317.669 213.636 317.461L212.395 316.655C212.094 316.459 211.719 316.454 211.413 316.641L210.014 317.499C209.696 317.693 209.681 318.184 209.987 318.401L211.169 319.24Z" fill="#5E35B5"/>
<path d="M215.071 317.124C215.379 317.342 215.774 317.355 216.093 317.155L217.531 316.257C217.853 316.055 217.857 315.553 217.538 315.345L216.297 314.539C215.996 314.343 215.621 314.338 215.315 314.525L213.916 315.382C213.598 315.577 213.583 316.068 213.889 316.285L215.071 317.124Z" fill="#5E35B5"/>
<path d="M219.006 315.032C219.296 315.237 219.665 315.261 219.976 315.094L233.394 307.851C233.739 307.665 233.758 307.139 233.428 306.925L232.209 306.133C231.924 305.948 231.572 305.933 231.274 306.093L217.884 313.283C217.546 313.465 217.518 313.975 217.833 314.199L219.006 315.032Z" fill="#5E35B5"/>
<path d="M234.579 306.543C234.887 306.762 235.283 306.774 235.601 306.575L237.039 305.676C237.362 305.474 237.366 304.972 237.047 304.764L235.806 303.958C235.505 303.763 235.13 303.757 234.824 303.945L233.425 304.802C233.107 304.997 233.092 305.487 233.397 305.704L234.579 306.543Z" fill="#5E35B5"/>
<path d="M238.481 304.427C238.789 304.646 239.184 304.658 239.503 304.458L240.941 303.56C241.264 303.358 241.267 302.856 240.948 302.648L239.707 301.842C239.406 301.646 239.031 301.641 238.726 301.828L237.326 302.686C237.008 302.88 236.994 303.371 237.299 303.588L238.481 304.427Z" fill="#5E35B5"/>
<path d="M242.383 302.311C242.691 302.529 243.086 302.542 243.405 302.342L244.843 301.444C245.165 301.242 245.169 300.74 244.85 300.532L243.609 299.726C243.308 299.53 242.933 299.525 242.627 299.712L241.228 300.569C240.91 300.764 240.895 301.255 241.201 301.472L242.383 302.311Z" fill="#5E35B5"/>
<path d="M246.285 300.195C246.593 300.413 246.988 300.425 247.307 300.226L248.745 299.327C249.067 299.126 249.071 298.623 248.752 298.416L247.511 297.61C247.21 297.414 246.835 297.409 246.529 297.596L245.13 298.453C244.812 298.648 244.797 299.139 245.103 299.356L246.285 300.195Z" fill="#5E35B5"/>
<path d="M259.002 276.224C263.505 277.511 269.92 280.773 269.92 289.872C269.92 290.792 269.461 291.829 268.809 292.837C266.79 295.96 262.405 295.774 259.628 293.301L252.747 287.17C247.788 282.752 250.693 274.597 257.222 275.813C257.857 275.931 258.454 276.068 259.002 276.224Z" fill="white"/>
<path d="M254.595 278.445C255.018 277.972 255.744 277.931 256.217 278.354L257.75 279.723C258.209 280.133 258.073 280.883 257.499 281.105C257.296 281.184 257.069 281.179 256.87 281.091L254.989 280.262C254.275 279.947 254.075 279.027 254.595 278.445Z" fill="#5B1DEA"/>
<path d="M231 349C233 347.5 240 337 240 337L250 354.5C246.667 357.167 240 363.5 240 363.5C240 363.5 233 368 225 366.5C217 365 210.662 339.243 207.5 334.5C204.5 330 204.087 329.358 202 326C200.197 323.099 197.5 318.5 197.5 318.5L196 315.5C197 312.5 198.167 316.5 199.5 315.5C200.333 315.5 199 313.5 200.5 312.5C201.748 311.668 201.5 313.708 203 313.5C203.982 313.364 202.06 311.485 204 311C205.418 310.646 205.644 312.734 206.5 312.553C206.852 312.479 209.024 310 210 310C212 310 208.5 317 212 319C213.941 320.109 215 312.5 216.5 314.5C218 316.5 215 322 213 324.5C211 327 213 330 213 330C213 330 224 346 227 349C229.4 351.4 229 350.5 231 349Z" fill="#FCDDE0"/>
<path d="M238 331C238.838 328.067 242 324.8 244 326C244 327 244.547 330.459 247 337C250 345 253.833 351 256.5 354.5C255.667 355.167 254.001 357 251.5 358C249 359 247 357 245.5 354.5C244 352 242.5 349 240 343.5C238.272 339.698 237 334.5 238 331Z" fill="white"/>
<path d="M256 291.5C258.8 292.3 271.167 293.5 277 294L278.5 296.5L272.5 301C264.834 299.5 252.5 297 248.5 297.5C244.5 298 240 299.5 240 298C240 296.5 242 297.5 243 296.5C244 295.5 244.5 293 243 292.5C241.5 292 237.5 294 236 296.5C234.5 299 233.5 296.5 234 294C234.5 291.5 237.741 289.71 241 288.5C246.601 286.421 252.5 290.5 256 291.5Z" fill="#FCDDDF"/>
<path d="M262 259.5C261.2 253.9 265 251.167 267 250.5L267 249.5C271.667 248 281.3 245 282.5 245C284 245 293 253 294 254.5C295 256 297 273 296 278.5C295 284 288.5 286.5 284 286.5C279.5 286.5 277 286.5 271.5 281.5C266 276.5 263 266.5 262 259.5Z" fill="#FCDDDF"/>
<path d="M248 341C244 333 243.667 327.333 244 325.5C250.833 318.167 253 311.5 280 291.5C307 271.5 317 275.5 325 287C333 298.5 339.167 339.667 341 360.5L326 398C319.833 400.667 305.4 406.1 297 406.5C286.5 407 280.5 402.5 273 393.5C265.5 384.5 271.5 353 270 348C268.8 344 260.167 351 256 355C255 353.667 252 349 248 341Z" fill="#9FF7C7"/>
<path d="M258 233C255.001 234.843 255 241.5 255 241.5C255 241.5 254.197 251.645 258 256C261.698 260.235 268 261.167 271.5 261C271.5 257.5 275 255.5 277 258.5C279.166 261.749 276.146 266.189 277 270L277.025 270.109C278.024 274.57 278.756 277.841 282.5 280.5C288.495 284.757 295.061 281.335 301 277C307.348 272.366 308.921 266.785 310 259C311.151 250.692 310.427 244.788 305.5 238C302.15 233.385 299.396 230.847 294 229C285.92 226.235 275 230.5 272.5 233C270 235.5 269 234.5 265.5 233C262 231.5 260.496 231.467 258 233Z" fill="#5B1EE9"/>
<path fill-rule="evenodd" clip-rule="evenodd" d="M244.5 387C244.5 387 281.5 410.9 287.5 412.5C288.288 412.71 289.027 412.915 289.72 413.107C295.625 414.743 298.263 415.474 300.5 411C301.076 409.847 302.131 406.382 303.597 401.566C308.489 385.495 317.959 354.387 329.5 344C343.239 331.635 348.169 330.176 353.895 328.481C354.421 328.326 354.953 328.168 355.5 328C362 326 371.5 327 368.5 348C367.823 352.741 367.451 357.661 367.081 362.569C365.81 379.4 364.549 396.096 351 405C344.863 409.033 338.111 413.435 331.262 417.386L360.5 485L357.5 486.5L336.602 443.492L303.171 461.811L302 518H298.5L296.997 462.105C287.02 456.173 270.623 446.678 264.19 443.789L243 486.5H241L260.286 439L267.066 422.3C260.993 419.66 255.667 416.37 252 412.5C244.123 404.186 243.906 401.233 243.639 397.609C243.601 397.092 243.562 396.562 243.5 396C243.1 392.4 244.5 387 244.5 387ZM273.607 424.808L268.002 436.105L280.726 426.901C278.325 426.292 275.938 425.594 273.607 424.808ZM285.798 428.05L265.91 440.321L265.298 441.556L296.878 457.663L296.122 429.551C295.914 429.537 295.706 429.52 295.5 429.5C292.372 429.197 289.101 428.711 285.798 428.05ZM303.854 428.99L303.224 459.252L334.852 439.911L312.515 426.509C309.535 427.608 306.632 428.46 303.854 428.99ZM316.761 424.806L331.764 433.535L325.475 420.593C322.548 422.142 319.63 423.568 316.761 424.806Z" fill="#FF98B2"/>
<ellipse cx="81.5" cy="331" rx="13.5" ry="5" fill="#EECCFF"/>
<path d="M78 281.5C79.0199 280.48 80.5774 279.467 82.5003 279.5C84.777 279.539 86.5858 280 87.5003 282.5C88.4147 285 88.5004 286.5 93.0003 288.5C97.5001 290.5 97.0004 293.796 96.0003 295C95.0001 296.204 90.5003 298.5 94.5003 300.5C98.5003 302.5 99.8539 305.025 99.5003 307.5C99.0001 311 93.5003 316 90.5003 316.5C87.5003 317 84.5003 317.5 79.0003 316.5C73.5003 315.5 70.9995 312 68.9998 309.5C67.0001 307 70.0003 305 70.0003 305C70.0003 305 72.5003 304 71.5003 302C70.5003 300 70.0003 300 70.0003 297.5C70.0003 295 73.5003 294 75.5003 292.5C77.5003 291 76.5 289 76 287C75.5 285 76.9997 282.5 78 281.5Z" fill="#4D20B6"/>
<path d="M81.5 316C78 316 75.5 315.5 72 313L74.5 330.5C75.5 332 78.0819 333.5 82.5 333.5C88 333.5 93.5 331.5 94.5 329.5L96 313C92.5 315.5 85.5 316 81.5 316Z" fill="#FF98B4"/>
<path d="M133.738 343.063C134.68 342.7 135.728 342.721 136.572 343.12L157.5 353L157.5 354.316C157.5 355.037 157.006 355.728 156.236 356.082L148.135 359.814C147.135 360.275 145.975 360.286 145.055 359.845L124.478 349.969C123.868 349.677 123.5 349.125 123.5 348.504L123.5 347L133.738 343.063Z" fill="#4A259B"/>
<path d="M133.713 341.931C134.697 341.506 135.82 341.51 136.713 341.94L156.697 351.576C158.119 352.261 157.953 354.095 156.405 354.806L148.166 358.591C147.178 359.045 146.033 359.061 145.119 358.634L124.532 349.018C123.066 348.334 123.253 346.444 124.856 345.753L133.713 341.931Z" fill="#6128E0"/>
<path d="M133.713 341.931C134.697 341.506 135.82 341.51 136.713 341.94L156.697 351.576C158.119 352.261 157.953 354.095 156.405 354.806L148.166 358.591C147.178 359.045 146.033 359.061 145.119 358.634L124.532 349.018C123.066 348.334 123.253 346.444 124.856 345.753L133.713 341.931Z" fill="#6128E0"/>
<path d="M133.234 343.768C134.874 343.06 136.746 343.066 138.234 343.784L154.139 351.452C154.85 351.795 154.767 352.712 153.993 353.068L147.608 356.001C145.961 356.757 144.053 356.784 142.529 356.072L126.111 348.404C125.378 348.062 125.472 347.117 126.273 346.772L133.234 343.768Z" fill="white"/>
<path d="M152.175 258.871C152.175 258.5 152.381 258.158 152.711 257.986L173.237 247.215C173.903 246.865 174.702 247.348 174.702 248.1V283.285C174.702 283.651 174.502 283.987 174.181 284.163L153.655 295.383C152.989 295.747 152.175 295.265 152.175 294.505V258.871Z" fill="#371781"/>
<path d="M153.114 257.821L174.701 246.446V282.466L153.114 294.314V257.821Z" fill="#4D20B6"/>
<path d="M173.998 280.823C174.929 280.313 176.06 280.333 176.972 280.875L191.022 289.229C192.345 290.016 192.321 291.941 190.977 292.693L170.445 304.191C169.546 304.695 168.451 304.701 167.546 304.209L154.188 296.941C152.102 295.807 152.098 292.815 154.18 291.674L173.998 280.823Z" fill="#4D20B6"/>
<path d="M174.1 279.707C174.977 279.264 176.015 279.279 176.879 279.746L190.744 287.24C192.143 287.996 192.142 290.003 190.743 290.759L170.405 301.742C169.527 302.216 168.47 302.222 167.586 301.759L154.522 294.91C152.361 293.777 152.385 290.675 154.563 289.575L174.1 279.707Z" fill="#5B1DEA"/>
<path d="M110.877 211.249C112.371 209.257 113.768 208.378 114.348 208.073C114.534 207.975 114.724 207.888 114.909 207.788L205.591 158.697C208.971 156.867 213.065 159.376 212.97 163.218L211.457 224.072C211.452 224.283 211.46 224.492 211.475 224.703C211.558 225.863 211.739 229.967 210.368 232.367C208.424 235.771 204.87 237.678 203.708 238.232C203.456 238.352 203.21 238.477 202.974 238.625L116.687 292.344C113.347 294.424 109.025 292.009 109.045 288.075L109.384 219.457C109.385 219.304 109.379 219.151 109.37 218.997C109.307 217.946 109.158 213.541 110.877 211.249Z" fill="#E3B1FF"/>
<path d="M113.693 213.126C115.217 211.094 116.64 210.221 117.198 209.932C117.362 209.848 117.529 209.772 117.692 209.687L206.717 163.261C210.039 161.529 214.016 163.931 214.029 167.677L214.264 234.02C214.265 234.184 214.273 234.346 214.286 234.51C214.366 235.564 214.584 239.793 213.184 242.244C211.152 245.803 207.358 247.726 206.38 248.177C206.223 248.249 206.069 248.321 205.917 248.403L119.226 295.023C115.885 296.819 111.839 294.387 111.858 290.594L112.2 221.335C112.201 221.181 112.195 221.028 112.186 220.874C112.123 219.823 111.974 215.418 113.693 213.126Z" fill="#F0D9FF"/>
<path d="M113.781 213.11C115.744 210.504 117.54 209.81 117.54 209.81L204.643 163.978C204.643 163.978 208.5 161.294 211.813 163.373C215.125 165.451 213.885 172.723 213.885 172.723L214.166 225.472L112 280L112.288 221.062C112.288 221.062 111.818 215.716 113.781 213.11Z" fill="#591CE9"/>
<path d="M118.5 217L208.307 169.788L208.5 221.5L118.5 270V217Z" fill="white"/>
<ellipse cx="274" cy="216.5" rx="17" ry="6.5" fill="#EECDFF"/>
<rect x="273" y="160" width="3" height="62" fill="#EECDFF"/>
<rect x="266.5" y="132.5" width="8" height="31" rx="4" stroke="#EECDFF" stroke-width="3"/>
<path d="M256.624 146.508C254.139 151.292 253.518 157.804 253 160.462C253 160.462 282.511 161.957 281.993 159.963C281.476 157.97 280.854 153.485 278.369 147.504C275.884 141.524 272.342 137.582 266.979 138.035C262.386 138.424 259.109 141.723 256.624 146.508Z" fill="#4D19DB"/>
<path d="M256.624 146.508C254.139 151.292 253.518 157.804 253 160.462C253 160.462 282.511 161.957 281.993 159.963C281.476 157.97 280.854 153.485 278.369 147.504C275.884 141.524 272.342 137.582 266.979 138.035C262.386 138.424 259.109 141.723 256.624 146.508Z" fill="url(#paint6_linear)"/>
<ellipse cx="267.5" cy="160.5" rx="14.5" ry="7.5" fill="#332096"/>
<ellipse cx="267.5" cy="161" rx="12.5" ry="6" fill="url(#paint7_linear)"/>
<g opacity="0.8">
<path d="M140 247.507C140 241.89 140 239.082 141.332 236.766C142.664 234.451 145.092 233.039 149.948 230.217L226 186V238.051C226 243.64 226 246.435 224.679 248.744C223.357 251.052 220.947 252.467 216.127 255.297L149.038 294.693C145.025 297.049 143.019 298.227 141.51 297.363C140 296.499 140 294.172 140 289.519V247.507Z" fill="#FFC18E"/>
<path d="M140 247.507C140 241.89 140 239.082 141.332 236.766C142.664 234.451 145.092 233.039 149.948 230.217L226 186V238.051C226 243.64 226 246.435 224.679 248.744C223.357 251.052 220.947 252.467 216.127 255.297L149.038 294.693C145.025 297.049 143.019 298.227 141.51 297.363C140 296.499 140 294.172 140 289.519V247.507Z" fill="url(#paint8_linear)"/>
</g>
<path d="M140 237.507C140 231.89 140 229.082 141.332 226.766C142.664 224.451 145.092 223.039 149.948 220.217L216.984 181.242C220.99 178.913 222.992 177.749 224.496 178.614C226 179.479 226 181.796 226 186.429V190L140 241.5V237.507Z" fill="url(#paint9_linear)"/>
<path opacity="0.2" d="M146 248.765C146 247.36 146.737 246.058 147.942 245.335L161.986 236.909C162.652 236.509 163.5 236.989 163.5 237.766L163.5 262.941C163.5 264.326 162.783 265.613 161.605 266.342L147.526 275.055C146.86 275.468 146 274.989 146 274.205V248.765Z" fill="white"/>
<path opacity="0.2" d="M174 232.721C174 231.34 174.713 230.057 175.887 229.328L219.972 201.949C220.639 201.535 221.5 202.014 221.5 202.798V203.256C221.5 204.65 220.774 205.943 219.584 206.67L175.519 233.573C174.853 233.979 174 233.5 174 232.721Z" fill="white"/>
<path opacity="0.2" d="M174 239.721C174 238.34 174.713 237.057 175.887 236.328L219.972 208.949C220.639 208.535 221.5 209.014 221.5 209.798V210.256C221.5 211.65 220.774 212.943 219.584 213.67L175.519 240.573C174.853 240.979 174 240.5 174 239.721Z" fill="white"/>
<path opacity="0.2" d="M174 246.721C174 245.34 174.713 244.057 175.887 243.328L219.972 215.949C220.639 215.535 221.5 216.014 221.5 216.798V217.256C221.5 218.65 220.774 219.943 219.584 220.67L175.519 247.573C174.853 247.979 174 247.5 174 246.721Z" fill="white"/>
<path opacity="0.2" d="M174 253.233C174 251.846 174.723 250.56 175.907 249.839L195.49 237.919C196.152 237.516 197 237.992 197 238.767C197 240.154 196.277 241.44 195.093 242.161L175.51 254.081C174.848 254.484 174 254.008 174 253.233Z" fill="white"/>
<path opacity="0.2" d="M174 265.248C174 263.852 174.728 262.557 175.92 261.831L195.48 249.925C196.146 249.52 197 249.999 197 250.779V253.752C197 255.148 196.272 256.443 195.08 257.169L175.52 269.075C174.854 269.48 174 269.001 174 268.221V265.248Z" fill="#D94A1F"/>
<path opacity="0.2" d="M199 249.248C199 247.852 199.728 246.557 200.92 245.831L220.48 233.925C221.146 233.52 222 233.999 222 234.779V237.752C222 239.148 221.272 240.443 220.08 241.169L200.52 253.075C199.854 253.48 199 253.001 199 252.221V249.248Z" fill="#F26C44"/>
<path opacity="0.5" d="M143 230.684C143 229.323 143.692 228.055 144.837 227.319L146.918 225.981C148.25 225.125 150 226.081 150 227.663V229.679C150 231.114 149.231 232.44 147.985 233.152L145.992 234.29C144.659 235.052 143 234.089 143 232.554V230.684Z" fill="white"/>
<path opacity="0.3" d="M153 224.684C153 223.323 153.692 222.055 154.837 221.319L156.918 219.981C158.25 219.125 160 220.081 160 221.663V223.679C160 225.114 159.231 226.44 157.985 227.152L155.992 228.29C154.659 229.052 153 228.089 153 226.554V224.684Z" fill="white"/>
<path opacity="0.3" d="M163 218.684C163 217.323 163.692 216.055 164.837 215.319L166.918 213.981C168.25 213.125 170 214.081 170 215.663V217.679C170 219.114 169.231 220.44 167.985 221.152L165.992 222.29C164.659 223.052 163 222.089 163 220.554V218.684Z" fill="white"/>
<g opacity="0.6">
<path opacity="0.8" d="M235 194.372L296.5 158V191.007C296.5 194.91 296.5 196.861 295.579 198.474C294.658 200.087 292.978 201.079 289.617 203.063L244.05 229.96C240.033 232.331 238.025 233.517 236.513 232.653C235 231.79 235 229.457 235 224.793V194.372Z" fill="url(#paint10_linear)"/>
<path d="M235 193.753C235 190.934 235 189.524 235.67 188.364C236.341 187.203 237.562 186.499 240.003 185.091L290.501 155.96C293.168 154.422 294.501 153.653 295.5 154.231C296.5 154.808 296.5 156.347 296.5 159.425V162L235 197.89V193.753Z" fill="url(#paint11_linear)"/>
<path opacity="0.5" d="M236.918 191.436C236.918 190.276 237.508 189.197 238.483 188.569L238.761 188.391C239.899 187.66 241.395 188.477 241.395 189.829C241.395 191.057 240.738 192.19 239.672 192.798L239.468 192.915C238.332 193.564 236.918 192.744 236.918 191.436Z" fill="white"/>
<path opacity="0.3" d="M243.314 187.599C243.314 186.439 243.904 185.359 244.879 184.732L245.156 184.554C246.294 183.823 247.791 184.64 247.791 185.992C247.791 187.219 247.133 188.352 246.068 188.961L245.863 189.078C244.727 189.727 243.314 188.907 243.314 187.599Z" fill="white"/>
<path opacity="0.3" d="M249.709 183.762C249.709 182.602 250.299 181.522 251.274 180.895L251.552 180.717C252.69 179.985 254.186 180.802 254.186 182.155C254.186 183.382 253.529 184.515 252.463 185.124L252.259 185.241C251.123 185.89 249.709 185.07 249.709 183.762Z" fill="white"/>
</g>
<g opacity="0.6">
<path opacity="0.3" d="M308 168.63C308 166.958 308 166.122 308.395 165.43C308.789 164.739 309.509 164.314 310.95 163.464L345.983 142.781C347.322 141.991 347.992 141.595 348.496 141.883C349 142.171 349 142.948 349 144.503V165.951C349 168.742 349 170.137 348.341 171.29C347.682 172.443 346.48 173.151 344.076 174.568L314.03 192.267C311.354 193.844 310.015 194.632 309.008 194.057C308 193.481 308 191.927 308 188.821V168.63Z" fill="url(#paint12_linear)"/>
<path opacity="0.3" d="M359 154.099C359 152.433 359 151.6 359.392 150.911C359.784 150.221 360.5 149.795 361.932 148.943L378.977 138.799C380.318 138.001 380.989 137.602 381.494 137.889C382 138.177 382 138.957 382 140.518V148.65C382 151.429 382 152.819 381.345 153.969C380.691 155.119 379.496 155.829 377.106 157.248L365.042 164.412C362.362 166.004 361.021 166.8 360.011 166.224C359 165.649 359 164.09 359 160.973V154.099Z" fill="url(#paint13_linear)"/>
<path opacity="0.3" d="M309.435 168.009C309.435 167.142 309.876 166.334 310.606 165.865L310.813 165.732C311.664 165.184 312.784 165.796 312.784 166.807C312.784 167.725 312.292 168.573 311.495 169.028L311.342 169.115C310.492 169.601 309.435 168.988 309.435 168.009Z" fill="white"/>
</g>
<rect x="367.378" y="242.604" width="1.07513" height="21.5025" rx="0.537563" transform="rotate(-52.5764 367.378 242.604)" fill="#9270D9"/>
<path d="M337.542 245.289C338.449 244.798 339.545 244.807 340.444 245.314L372.96 263.633C373.638 264.014 373.64 264.989 372.964 265.373L349 279L315 257.5L337.542 245.289Z" fill="#4C19DB"/>
<path d="M337.657 243.228C338.501 242.77 339.512 242.745 340.378 243.158L372.5 258.5L372.5 263.921C372.5 264.279 372.309 264.61 371.998 264.788L349 278L315 255.5L337.657 243.228Z" fill="white"/>
<path d="M315.5 251.5C319.5 250 349 273 349 273C349 273 348.739 274.219 349 276C349.253 277.728 349.5 278.5 349.5 278.5L314.5 258C314.5 258 311.5 253 315.5 251.5Z" fill="#4C19DB"/>
<path d="M337.542 239.289C338.449 238.798 339.545 238.807 340.444 239.314L372.96 257.633C373.638 258.014 373.64 258.989 372.964 259.373L349 273L315 251.5L337.542 239.289Z" fill="#6F40F2"/>
<path opacity="0.1" d="M321.697 252.435C321.38 252.233 321.39 251.767 321.715 251.579L338.991 241.624C339.615 241.265 340.383 241.268 341.004 241.633L347.773 245.615C348.1 245.808 348.102 246.281 347.776 246.475L330.558 256.763C329.909 257.151 329.097 257.139 328.46 256.734L321.697 252.435Z" fill="#0400C6"/>
</g>
<defs>
<linearGradient id="paint0_linear" x1="286" y1="523" x2="402.645" y2="611.955" gradientUnits="userSpaceOnUse">
<stop stop-color="#6356CB"/>
<stop offset="0.990726" stop-color="#1B1861"/>
</linearGradient>
<linearGradient id="paint1_linear" x1="89.268" y1="51" x2="575.789" y2="509.622" gradientUnits="userSpaceOnUse">
<stop stop-color="#6356CB"/>
<stop offset="0.990726" stop-color="#1B1861"/>
</linearGradient>
<linearGradient id="paint2_linear" x1="321" y1="483" x2="321" y2="-53" gradientUnits="userSpaceOnUse">
<stop stop-color="white"/>
<stop offset="1" stop-color="white" stop-opacity="0"/>
</linearGradient>
<linearGradient id="paint3_linear" x1="624" y1="643" x2="494.32" y2="461.842" gradientUnits="userSpaceOnUse">
<stop stop-color="#6356CB"/>
<stop offset="0.990726" stop-color="#1B1861"/>
</linearGradient>
<linearGradient id="paint4_linear" x1="63" y1="391.5" x2="73" y2="391.5" gradientUnits="userSpaceOnUse">
<stop offset="0.075" stop-color="#3B21A1"/>
<stop offset="0.71875" stop-color="#3603FF"/>
</linearGradient>
<linearGradient id="paint5_linear" x1="187" y1="449.724" x2="197" y2="449.724" gradientUnits="userSpaceOnUse">
<stop offset="0.075" stop-color="#3B21A1"/>
<stop offset="0.71875" stop-color="#3603FF"/>
</linearGradient>
<linearGradient id="paint6_linear" x1="255.589" y1="150.459" x2="279.922" y2="150.459" gradientUnits="userSpaceOnUse">
<stop stop-color="#2D1691"/>
<stop offset="0.744792" stop-color="#4E1ADD"/>
<stop offset="1" stop-color="#4F1BDE"/>
</linearGradient>
<linearGradient id="paint7_linear" x1="268" y1="167" x2="268" y2="155" gradientUnits="userSpaceOnUse">
<stop stop-color="white" stop-opacity="0.75"/>
<stop offset="1" stop-color="white"/>
</linearGradient>
<linearGradient id="paint8_linear" x1="145.5" y1="269.5" x2="224" y2="196.5" gradientUnits="userSpaceOnUse">
<stop offset="0.00438596" stop-color="#FF6939"/>
<stop offset="1" stop-color="#FFDA9F"/>
</linearGradient>
<linearGradient id="paint9_linear" x1="143" y1="236" x2="228" y2="185.5" gradientUnits="userSpaceOnUse">
<stop offset="0.00438596" stop-color="#FF7A5A"/>
<stop offset="0.546875" stop-color="#FFA668"/>
<stop offset="1" stop-color="#FFCB75"/>
</linearGradient>
<linearGradient id="paint10_linear" x1="238.517" y1="215.796" x2="288.721" y2="169.11" gradientUnits="userSpaceOnUse">
<stop offset="0.00438596" stop-color="#F3C5F8"/>
<stop offset="1" stop-color="#826EE2"/>
</linearGradient>
<linearGradient id="paint11_linear" x1="236.919" y1="194.372" x2="291.279" y2="162.076" gradientUnits="userSpaceOnUse">
<stop offset="0.00438596" stop-color="#A56ED8"/>
<stop offset="1" stop-color="#8471E7"/>
</linearGradient>
<linearGradient id="paint12_linear" x1="310.631" y1="181.23" x2="348.182" y2="146.31" gradientUnits="userSpaceOnUse">
<stop offset="0.00438596" stop-color="#DEE155"/>
<stop offset="1" stop-color="#E9FFD3"/>
</linearGradient>
<linearGradient id="paint13_linear" x1="360.476" y1="159.75" x2="381.697" y2="140.173" gradientUnits="userSpaceOnUse">
<stop offset="0.00438596" stop-color="#6054C4"/>
<stop offset="1" stop-color="#E9FFD3"/>
</linearGradient>
<clipPath id="clip0">
<rect width="529" height="613" fill="white" transform="translate(0 -1)"/>
</clipPath>
</defs>
</svg>
